<svg width="48" height="48" viewBox="0 0 48 48" fill="none" xmlns="http://www.w3.org/2000/svg">
<path d="M24 4.5C13.248 4.5 4.5 13.248 4.5 24C4.5 34.752 13.248 43.5 24 43.5C34.752 43.5 43.5 34.752 43.5 24C43.5 13.248 34.752 4.5 24 4.5ZM24 7.5C33.1305 7.5 40.5 14.8695 40.5 24C40.5 33.1305 33.1305 40.5 24 40.5C14.8695 40.5 7.5 33.1305 7.5 24C7.5 14.8695 14.8695 7.5 24 7.5ZM18.33 16.17L16.17 18.33L21.846 24L16.173 29.67L18.333 31.83L24 26.1555L29.67 31.8255L31.83 29.67L26.1555 24L31.8255 18.33L29.67 16.17L24 21.846L18.33 16.173V16.17Z" fill="white"/>
</svg>
