<svg width="300" height="300" viewBox="0 0 300 300" fill="none" xmlns="http://www.w3.org/2000/svg">
<path d="M150 16.6669C123.63 16.6669 97.8509 24.4867 75.9244 39.1376C53.9978 53.7884 36.9081 74.6123 26.8164 98.9757C16.7248 123.339 14.0843 150.148 19.229 176.012C24.3737 201.876 37.0725 225.634 55.7195 244.281C74.3665 262.928 98.1242 275.627 123.988 280.772C149.852 285.916 176.661 283.276 201.025 273.184C225.388 263.092 246.212 246.003 260.863 224.076C275.514 202.15 283.334 176.371 283.334 150C283.334 114.638 269.286 80.7242 244.281 55.7193C219.276 30.7145 185.363 16.6669 150 16.6669ZM150 266.667C126.926 266.667 104.37 259.824 85.1839 247.005C65.9981 234.185 51.0447 215.965 42.2144 194.647C33.3842 173.329 31.0738 149.871 35.5754 127.24C40.077 104.609 51.1885 83.8205 67.5046 67.5044C83.8207 51.1883 104.609 40.0769 127.24 35.5753C149.871 31.0736 173.329 33.384 194.647 42.2143C215.965 51.0445 234.186 65.9979 247.005 85.1837C259.825 104.369 266.667 126.926 266.667 150C266.667 180.942 254.375 210.617 232.496 232.496C210.617 254.375 180.942 266.667 150 266.667Z" fill="#2EBA4D"/>
<path d="M233.338 100.832C231.777 99.2802 229.665 98.409 227.463 98.409C225.262 98.409 223.15 99.2802 221.588 100.832L129.088 192.916L79.0883 142.916C77.5633 141.269 75.4467 140.296 73.2041 140.21C70.9615 140.124 68.7766 140.932 67.13 142.457C65.4835 143.982 64.5101 146.099 64.4242 148.342C64.3382 150.584 65.1467 152.769 66.6717 154.416L129.088 216.666L233.338 112.666C234.119 111.891 234.739 110.969 235.162 109.954C235.585 108.938 235.803 107.849 235.803 106.749C235.803 105.649 235.585 104.56 235.162 103.544C234.739 102.529 234.119 101.607 233.338 100.832Z" fill="#2EBA4D"/>
</svg>
